<?xml version="1.0" encoding="iso-8859-1"?>
<!-- Generator: Adobe Illustrator 19.0.0, SVG Export Plug-In . SVG Version: 6.00 Build 0)  -->
<svg version="1.1" id="Capa_1" xmlns="http://www.w3.org/2000/svg" xmlns:xlink="http://www.w3.org/1999/xlink" x="0px" y="0px"
	 viewBox="0 0 512 512" style="enable-background:new 0 0 512 512;" xml:space="preserve">
<path style="fill:#F8B64C;" d="M420.683,256c0,90.955-73.728,164.683-164.683,164.683c-90.944,0-164.672-73.728-164.672-164.683
	S165.045,91.317,256,91.317S420.683,165.045,420.683,256"/>
<g>
	<path style="fill:#FFD15C;" d="M256,378.016c-67.285,0-122.005-54.752-122.005-122.016c0-67.296,54.731-122.016,122.005-122.016
		S378.016,188.704,378.016,256C378.016,323.275,323.285,378.016,256,378.016"/>
	<polygon style="fill:#FFD15C;" points="273.515,74.603 238.475,74.603 256,0 	"/>
	<polygon style="fill:#FFD15C;" points="238.485,437.376 273.525,437.376 256,512 	"/>
	<polygon style="fill:#FFD15C;" points="180.469,90.144 150.144,107.669 128,34.293 	"/>
	<polygon style="fill:#FFD15C;" points="331.531,421.835 361.856,404.331 384,477.707 	"/>
	<polygon style="fill:#FFD15C;" points="107.68,150.123 90.165,180.48 34.304,128 	"/>
	<polygon style="fill:#FFD15C;" points="404.331,361.856 421.845,331.52 477.707,384 	"/>
	<polygon style="fill:#FFD15C;" points="331.531,90.144 361.856,107.669 384,34.293 	"/>
	<polygon style="fill:#FFD15C;" points="180.469,421.835 150.144,404.331 128,477.707 	"/>
	<polygon style="fill:#FFD15C;" points="404.331,150.123 421.845,180.48 477.707,128 	"/>
	<polygon style="fill:#FFD15C;" points="107.68,361.856 90.165,331.52 34.304,384 	"/>
	<polygon style="fill:#FFD15C;" points="74.624,238.475 74.624,273.525 0,256 	"/>
	<polygon style="fill:#FFD15C;" points="437.387,273.525 437.387,238.475 512,256 	"/>
	<polygon style="fill:#FFD15C;" points="219.605,78.005 198.347,83.691 200.597,49.557 	"/>
	<polygon style="fill:#FFD15C;" points="292.235,434.037 313.493,428.352 311.243,462.475 	"/>
	<polygon style="fill:#FFD15C;" points="135.456,120 119.893,135.563 104.768,104.875 	"/>
	<polygon style="fill:#FFD15C;" points="376.384,392.043 391.947,376.48 407.072,407.168 	"/>
	<polygon style="fill:#FFD15C;" points="83.584,198.453 77.888,219.712 49.451,200.704 	"/>
	<polygon style="fill:#FFD15C;" points="428.256,313.579 433.952,292.331 462.389,311.339 	"/>
	<polygon style="fill:#FFD15C;" points="77.888,292.331 83.584,313.579 49.451,311.339 	"/>
	<polygon style="fill:#FFD15C;" points="433.952,219.712 428.256,198.453 462.389,200.704 	"/>
	<polygon style="fill:#FFD15C;" points="119.893,376.48 135.456,392.043 104.768,407.168 	"/>
	<polygon style="fill:#FFD15C;" points="391.957,135.563 376.395,120 407.083,104.875 	"/>
	<polygon style="fill:#FFD15C;" points="198.347,428.352 219.605,434.037 200.597,462.475 	"/>
	<polygon style="fill:#FFD15C;" points="313.493,83.691 292.235,77.984 311.243,49.547 	"/>
</g>
<g>
</g>
<g>
</g>
<g>
</g>
<g>
</g>
<g>
</g>
<g>
</g>
<g>
</g>
<g>
</g>
<g>
</g>
<g>
</g>
<g>
</g>
<g>
</g>
<g>
</g>
<g>
</g>
<g>
</g>
</svg>
